<svg width="221" height="45" viewBox="0 0 221 45" fill="none" xmlns="http://www.w3.org/2000/svg">
<g clip-path="url(#clip0_10_29)">
<path d="M89.3196 0.492632C89.3246 0.360263 89.3813 0.234958 89.4778 0.143078C89.5742 0.051199 89.703 -9.07595e-05 89.8369 1.20566e-07H90.5267L101.543 10.4779V0.795789C101.543 0.658307 101.597 0.52616 101.693 0.427194C101.79 0.328228 101.922 0.270173 102.06 0.265263H105.375C105.514 0.270173 105.645 0.328228 105.742 0.427194C105.838 0.52616 105.892 0.658307 105.892 0.795789V19.1368C105.887 19.2692 105.831 19.3945 105.734 19.4864C105.638 19.5783 105.509 19.6296 105.375 19.6295H104.934C104.804 19.6138 104.68 19.5684 104.57 19.4968L93.7071 8.67789V18.9474C93.7071 19.083 93.6526 19.2132 93.5556 19.3091C93.4585 19.405 93.327 19.4589 93.1898 19.4589H89.8753C89.7362 19.459 89.6026 19.4057 89.5025 19.3103C89.4025 19.2149 89.3438 19.0848 89.3388 18.9474L89.3196 0.492632Z" fill="#FF9E18"/>
<path d="M120.53 2.89734e-06C122.492 -0.0037285 124.411 0.567767 126.045 1.64228C127.678 2.71679 128.953 4.24609 129.709 6.03696C130.464 7.82783 130.665 9.79989 130.288 11.704C129.91 13.608 128.97 15.3587 127.587 16.7347C126.203 18.1107 124.439 19.0503 122.516 19.4348C120.592 19.8193 118.597 19.6315 116.782 18.895C114.967 18.1585 113.413 16.9064 112.317 15.297C111.221 13.6876 110.632 11.793 110.625 9.85263C110.617 8.56146 110.868 7.28154 111.362 6.08649C111.856 4.89144 112.585 3.80484 113.505 2.88919C114.426 1.97354 115.52 1.2469 116.726 0.751063C117.931 0.255228 119.224 -1.88411e-05 120.53 2.89734e-06ZM120.53 15.2716C121.624 15.2791 122.696 14.9645 123.61 14.3677C124.523 13.771 125.236 12.9192 125.658 11.9205C126.081 10.9219 126.193 9.8216 125.982 8.75955C125.77 7.69751 125.244 6.72173 124.47 5.9563C123.696 5.19087 122.709 4.67039 121.635 4.46105C120.561 4.2517 119.449 4.36296 118.439 4.78066C117.429 5.19837 116.568 5.90365 115.964 6.8068C115.361 7.70996 115.043 8.77018 115.05 9.85263C115.06 11.2868 115.641 12.6593 116.666 13.6734C117.692 14.6875 119.08 15.2617 120.53 15.2716Z" fill="#FF9E18"/>
<path d="M132.523 0.985262C132.482 0.907369 132.463 0.819961 132.467 0.732116C132.471 0.64427 132.5 0.559191 132.548 0.485713C132.597 0.412235 132.665 0.35304 132.745 0.314273C132.825 0.275507 132.914 0.258584 133.002 0.265262H136.662C136.758 0.271728 136.852 0.303112 136.932 0.356295C137.013 0.409477 137.078 0.482607 137.122 0.56842L141.777 10.5347L146.395 0.56842C146.438 0.482607 146.503 0.409477 146.584 0.356295C146.664 0.303112 146.758 0.271728 146.854 0.265262H150.533C150.62 0.262133 150.706 0.281657 150.784 0.321885C150.861 0.362112 150.926 0.421634 150.972 0.494507C151.019 0.56738 151.045 0.651053 151.049 0.737169C151.052 0.823285 151.033 0.90883 150.993 0.985262L142.333 19.3263C142.293 19.4147 142.229 19.49 142.147 19.5437C142.066 19.5974 141.971 19.6271 141.873 19.6295H141.605C141.504 19.6307 141.405 19.6027 141.319 19.5488C141.234 19.4949 141.167 19.4176 141.126 19.3263L132.523 0.985262Z" fill="#FF9E18"/>
<path d="M154.633 0.795788C154.633 0.724495 154.647 0.653924 154.676 0.58829C154.704 0.522657 154.745 0.463308 154.797 0.413788C154.849 0.364268 154.91 0.325594 154.977 0.300075C155.045 0.274555 155.117 0.262715 155.189 0.265262H166.684C166.826 0.265262 166.963 0.321156 167.063 0.420649C167.164 0.520142 167.22 0.655084 167.22 0.795788V3.78947C167.215 3.92687 167.157 4.05699 167.057 4.15242C166.957 4.24785 166.823 4.30114 166.684 4.30105H159.02V7.57895H165.305C165.443 7.58386 165.575 7.64191 165.672 7.74088C165.768 7.83984 165.822 7.97199 165.822 8.10947V11.16C165.817 11.2942 165.761 11.4216 165.665 11.5165C165.569 11.6115 165.44 11.6669 165.305 11.6716H159.02V15.3474H166.684C166.826 15.3474 166.963 15.4033 167.063 15.5028C167.164 15.6022 167.22 15.7372 167.22 15.8779V18.9474C167.215 19.0848 167.157 19.2149 167.057 19.3103C166.957 19.4057 166.823 19.459 166.684 19.4589H155.189C155.05 19.459 154.916 19.4057 154.816 19.3103C154.716 19.2149 154.657 19.0848 154.652 18.9474L154.633 0.795788Z" fill="#FF9E18"/>
<path d="M172.164 0.795785C172.164 0.655081 172.22 0.520139 172.321 0.420646C172.421 0.321153 172.558 0.265259 172.7 0.265259H175.976C176.115 0.270169 176.247 0.328224 176.343 0.427189C176.44 0.526155 176.494 0.658303 176.494 0.795785V15.3474H183.065C183.135 15.3473 183.204 15.3611 183.268 15.388C183.332 15.4149 183.39 15.4543 183.438 15.5038C183.486 15.5534 183.524 15.612 183.549 15.6763C183.573 15.7406 183.585 15.8091 183.582 15.8779V18.9474C183.582 19.083 183.528 19.2132 183.431 19.3091C183.334 19.405 183.202 19.4589 183.065 19.4589H172.7C172.561 19.459 172.427 19.4057 172.327 19.3103C172.227 19.2149 172.169 19.0848 172.164 18.9474V0.795785Z" fill="#FF9E18"/>
<path d="M187.644 0.795785C187.641 0.727026 187.653 0.65846 187.678 0.594189C187.703 0.529917 187.74 0.471262 187.789 0.421733C187.837 0.372203 187.895 0.332817 187.959 0.305931C188.023 0.279045 188.092 0.265212 188.161 0.265259H191.438C191.578 0.269982 191.712 0.327392 191.812 0.42588C191.911 0.524368 191.969 0.656583 191.974 0.795785V15.3474H198.526C198.669 15.3474 198.805 15.4033 198.906 15.5027C199.006 15.6022 199.063 15.7372 199.063 15.8779V18.9474C199.058 19.0848 198.999 19.2149 198.899 19.3103C198.799 19.4057 198.665 19.459 198.526 19.4589H188.161C188.024 19.4589 187.893 19.405 187.796 19.3091C187.699 19.2132 187.644 19.083 187.644 18.9474V0.795785Z" fill="#FF9E18"/>
<path d="M201.534 18.6442L210.156 0.303158C210.202 0.215883 210.271 0.142044 210.355 0.0888929C210.439 0.0357422 210.535 0.00510819 210.635 0L210.903 0C211.003 0.00510819 211.099 0.0357422 211.183 0.0888929C211.267 0.142044 211.336 0.215883 211.382 0.303158L220.004 18.6442C220.044 18.7206 220.063 18.8062 220.06 18.8923C220.056 18.9784 220.03 19.0621 219.983 19.135C219.937 19.2078 219.872 19.2674 219.795 19.3076C219.717 19.3478 219.631 19.3673 219.544 19.3642H216.498C216 19.3642 215.789 19.1937 215.54 18.6821L214.582 16.5221H207.071L206.094 18.7011C206.016 18.8988 205.879 19.0682 205.701 19.1867C205.523 19.3052 205.313 19.3672 205.098 19.3642H202.052C201.965 19.3673 201.878 19.3478 201.801 19.3076C201.724 19.2674 201.659 19.2078 201.612 19.135C201.566 19.0621 201.54 18.9784 201.536 18.8923C201.532 18.8062 201.552 18.7206 201.592 18.6442M212.915 12.8084L210.75 8.31789L208.681 12.8084H212.915Z" fill="#FF9E18"/>
<path d="M89.358 26.1474C89.358 26.0117 89.4125 25.8816 89.5095 25.7856C89.6065 25.6897 89.7381 25.6358 89.8752 25.6358H101.371C101.508 25.6358 101.639 25.6897 101.736 25.7856C101.833 25.8816 101.888 26.0117 101.888 26.1474V29.1221C101.891 29.1909 101.879 29.2594 101.854 29.3237C101.829 29.388 101.792 29.4466 101.743 29.4962C101.695 29.5457 101.637 29.5851 101.573 29.612C101.509 29.6388 101.44 29.6527 101.371 29.6526H93.7071V33.0253H99.9912C100.13 33.0252 100.264 33.0785 100.364 33.1739C100.464 33.2693 100.523 33.3994 100.528 33.5368V36.5116C100.528 36.6523 100.471 36.7872 100.371 36.8867C100.27 36.9862 100.134 37.0421 99.9912 37.0421H93.6496V40.7179H101.313C101.45 40.7179 101.582 40.7718 101.679 40.8677C101.776 40.9637 101.831 41.0938 101.831 41.2295V44.2042C101.831 44.3399 101.776 44.47 101.679 44.5659C101.582 44.6619 101.45 44.7158 101.313 44.7158H89.8178C89.6806 44.7158 89.549 44.6619 89.452 44.5659C89.355 44.47 89.3005 44.3399 89.3005 44.2042L89.358 26.1474Z" fill="#FF9E18"/>
<path d="M106.889 26.1474C106.889 26.0117 106.943 25.8816 107.04 25.7856C107.137 25.6897 107.269 25.6358 107.406 25.6358H110.682C110.821 25.6357 110.955 25.689 111.055 25.7844C111.155 25.8798 111.214 26.01 111.218 26.1474V40.7179H117.771C117.91 40.7178 118.044 40.7711 118.144 40.8665C118.244 40.962 118.302 41.0921 118.307 41.2295V44.2042C118.302 44.3416 118.244 44.4717 118.144 44.5672C118.044 44.6626 117.91 44.7159 117.771 44.7158H107.406C107.269 44.7158 107.137 44.6619 107.04 44.5659C106.943 44.47 106.889 44.3399 106.889 44.2042V26.1474Z" fill="#FF9E18"/>
<path d="M122.35 26.1474C122.355 26.0132 122.411 25.8858 122.507 25.7908C122.603 25.6959 122.731 25.6405 122.867 25.6358H134.363C134.502 25.6357 134.635 25.689 134.735 25.7844C134.835 25.8798 134.894 26.01 134.899 26.1474V29.1221C134.899 29.2628 134.843 29.3978 134.742 29.4972C134.641 29.5967 134.505 29.6526 134.363 29.6526H126.699V33.0253H132.983C133.119 33.03 133.248 33.0854 133.344 33.1803C133.44 33.2753 133.496 33.4027 133.5 33.5368V36.5116C133.501 36.6491 133.447 36.7812 133.35 36.8802C133.254 36.9791 133.122 37.0372 132.983 37.0421H126.661V40.7179H134.324C134.463 40.7178 134.597 40.7711 134.697 40.8665C134.797 40.962 134.856 41.0921 134.861 41.2295V44.2042C134.856 44.3416 134.797 44.4717 134.697 44.5672C134.597 44.6626 134.463 44.7159 134.324 44.7158H122.829C122.693 44.7111 122.564 44.6557 122.468 44.5607C122.372 44.4658 122.316 44.3384 122.312 44.2042L122.35 26.1474Z" fill="#FF9E18"/>
<path d="M148.425 25.3705C149.666 25.3236 150.903 25.5224 152.064 25.9551C153.226 26.3879 154.288 27.0459 155.189 27.8905C155.245 27.9385 155.291 27.9981 155.322 28.0652C155.353 28.1322 155.369 28.2051 155.369 28.2789C155.369 28.3527 155.353 28.4257 155.322 28.4927C155.291 28.5598 155.245 28.6193 155.189 28.6674L153.043 30.8653C152.998 30.9111 152.944 30.9476 152.885 30.9725C152.826 30.9974 152.762 31.0102 152.698 31.0102C152.633 31.0102 152.57 30.9974 152.511 30.9725C152.451 30.9476 152.398 30.9111 152.353 30.8653C151.32 29.9821 150.002 29.4918 148.636 29.4821C147.197 29.5651 145.843 30.1891 144.854 31.2265C143.864 32.2638 143.313 33.636 143.313 35.0621C143.313 36.4882 143.864 37.8604 144.854 38.8977C145.843 39.9351 147.197 40.5591 148.636 40.6421C149.988 40.6438 151.297 40.1742 152.334 39.3158C152.434 39.2341 152.559 39.1895 152.688 39.1895C152.818 39.1895 152.943 39.2341 153.043 39.3158L155.189 41.6842C155.281 41.7853 155.333 41.9171 155.333 42.0537C155.333 42.1903 155.281 42.322 155.189 42.4232C153.396 44.1492 150.985 45.1029 148.483 45.0758C145.851 45.0758 143.326 44.0417 141.465 42.2011C139.604 40.3605 138.558 37.8641 138.558 35.261C138.558 32.658 139.604 30.1616 141.465 28.321C143.326 26.4804 145.851 25.4463 148.483 25.4463" fill="#FF9E18"/>
<path d="M162.297 29.6526H158.35C158.211 29.6477 158.079 29.5897 157.983 29.4907C157.886 29.3917 157.832 29.2596 157.833 29.1221V26.1474C157.837 26.0132 157.893 25.8858 157.989 25.7908C158.085 25.6959 158.214 25.6405 158.35 25.6358H170.516C170.655 25.6357 170.788 25.689 170.889 25.7844C170.989 25.8798 171.047 26.01 171.052 26.1474V29.1221C171.052 29.2628 170.996 29.3978 170.895 29.4972C170.795 29.5967 170.658 29.6526 170.516 29.6526H166.684V44.2042C166.679 44.3416 166.62 44.4717 166.52 44.5672C166.42 44.6626 166.287 44.7159 166.148 44.7158H162.852C162.713 44.7159 162.58 44.6626 162.479 44.5672C162.379 44.4717 162.321 44.3416 162.316 44.2042L162.297 29.6526Z" fill="#FF9E18"/>
<path d="M175.267 26.1474C175.267 26.0117 175.322 25.8816 175.419 25.7856C175.516 25.6897 175.647 25.6358 175.785 25.6358H184.023C185.444 25.5957 186.831 26.0657 187.928 26.9588C189.026 27.8519 189.759 29.1077 189.992 30.494C190.226 31.8803 189.944 33.3034 189.199 34.5002C188.454 35.697 187.296 36.5865 185.939 37.0042L189.771 43.939C189.819 44.0178 189.845 44.1081 189.846 44.2004C189.847 44.2926 189.822 44.3833 189.775 44.463C189.728 44.5426 189.66 44.6081 189.578 44.6526C189.497 44.6971 189.404 44.7189 189.311 44.7158H185.594C185.505 44.7155 185.418 44.6927 185.341 44.6496C185.264 44.6064 185.199 44.5444 185.153 44.4695L181.494 37.2505H179.578V44.2042C179.573 44.3416 179.514 44.4717 179.414 44.5672C179.314 44.6626 179.181 44.7159 179.042 44.7158H175.785C175.647 44.7158 175.516 44.6619 175.419 44.566C175.322 44.47 175.267 44.3399 175.267 44.2042V26.1474ZM183.678 33.7263C184.246 33.7167 184.788 33.4907 185.192 33.0953C185.595 32.6999 185.828 32.1657 185.843 31.6042C185.838 31.058 185.617 30.5356 185.226 30.1493C184.835 29.7631 184.307 29.5439 183.755 29.539H179.597V33.7832L183.678 33.7263Z" fill="#FF9E18"/>
<path d="M198.948 25.6358H195.633C195.348 25.6358 195.116 25.8648 195.116 26.1474V44.2042C195.116 44.4867 195.348 44.7158 195.633 44.7158H198.948C199.234 44.7158 199.465 44.4867 199.465 44.2042V26.1474C199.465 25.8648 199.234 25.6358 198.948 25.6358Z" fill="#FF9E18"/>
<path d="M214.141 25.3705C215.366 25.3331 216.586 25.5366 217.73 25.9692C218.875 26.4018 219.921 27.0549 220.808 27.8905C220.865 27.9386 220.911 27.9981 220.942 28.0652C220.973 28.1322 220.989 28.2051 220.989 28.2789C220.989 28.3527 220.973 28.4257 220.942 28.4927C220.911 28.5598 220.865 28.6193 220.808 28.6674L218.663 30.8653C218.618 30.9111 218.564 30.9476 218.505 30.9725C218.446 30.9974 218.382 31.0102 218.318 31.0102C218.253 31.0102 218.19 30.9974 218.13 30.9725C218.071 30.9476 218.018 30.9111 217.973 30.8653C216.939 29.9821 215.622 29.4918 214.256 29.4821C212.816 29.5651 211.463 30.1891 210.474 31.2265C209.484 32.2638 208.933 33.636 208.933 35.0621C208.933 36.4882 209.484 37.8604 210.474 38.8977C211.463 39.9351 212.816 40.5591 214.256 40.6421C215.608 40.6438 216.917 40.1742 217.954 39.3158C218.056 39.2327 218.185 39.1873 218.318 39.1873C218.45 39.1873 218.579 39.2327 218.682 39.3158L220.866 41.6842C220.959 41.7853 221.01 41.9171 221.01 42.0537C221.01 42.1903 220.959 42.322 220.866 42.4232C219.982 43.2781 218.937 43.9524 217.79 44.4076C216.642 44.8627 215.416 45.0898 214.179 45.0758C211.547 45.0758 209.023 44.0417 207.162 42.2011C205.301 40.3605 204.255 37.8641 204.255 35.2611C204.255 32.658 205.301 30.1616 207.162 28.321C209.023 26.4804 211.547 25.4463 214.179 25.4463" fill="#FF9E18"/>
<path d="M41.2878 26.4884H33.3751L48.415 0H43.0505H31.4784V23.76L14.8674 0H11.5721H0V44.6968H11.5721V16.56L31.2293 44.6968H31.4784H35.9616L41.2878 26.4884Z" fill="#FF9E18"/>
<path d="M78.7247 11.3684V0H49.2963L43.9509 18.2084H52.745L36.9387 44.7347H78.7247V33.2337H54.6417V25.9579L56.7684 28.08H63.6848V26.8863H69.9498V24.0821H63.6848V20.6147H69.9498V17.8105H63.6848V16.6168H56.7684L54.6417 18.72V11.3684H78.7247Z" fill="#FF9E18"/>
</g>
<defs>
<clipPath id="clip0_10_29">
<rect width="221" height="45" fill="white"/>
</clipPath>
</defs>
</svg>
