<svg width="262" height="54" viewBox="0 0 262 54" fill="none" xmlns="http://www.w3.org/2000/svg">
<g clip-path="url(#clip0_62_163)">
<path d="M105.89 0.591158C105.896 0.432316 105.963 0.281949 106.078 0.171694C106.192 0.0614388 106.345 -0.000108911 106.504 1.44679e-07H107.321L120.381 12.5735V0.954947C120.381 0.789969 120.445 0.631392 120.56 0.512633C120.674 0.393874 120.83 0.324208 120.995 0.318316H124.924C125.089 0.324208 125.245 0.393874 125.359 0.512633C125.474 0.631392 125.538 0.789969 125.537 0.954947V22.9642C125.532 23.1231 125.464 23.2734 125.35 23.3837C125.236 23.4939 125.083 23.5555 124.924 23.5554H124.402C124.247 23.5366 124.1 23.4821 123.97 23.3962L111.092 10.4135V22.7368C111.092 22.8997 111.027 23.0558 110.912 23.1709C110.797 23.2861 110.641 23.3507 110.478 23.3507H106.549C106.384 23.3508 106.226 23.2869 106.107 23.1724C105.988 23.0579 105.919 22.9017 105.913 22.7368L105.89 0.591158Z" fill="#FF9E18"/>
<path d="M142.891 2.17874e-05C145.217 -0.00445588 147.492 0.681339 149.429 1.97075C151.365 3.26016 152.877 5.09533 153.772 7.24437C154.668 9.39341 154.906 11.7599 154.459 14.0448C154.011 16.3297 152.897 18.4304 151.257 20.0816C149.617 21.7328 147.525 22.8604 145.245 23.3218C142.965 23.7832 140.599 23.5578 138.447 22.674C136.295 21.7902 134.453 20.2878 133.154 18.3564C131.855 16.4251 131.157 14.1516 131.148 11.8232C131.139 10.2738 131.436 8.73786 132.022 7.30381C132.608 5.86975 133.472 4.56583 134.563 3.46705C135.654 2.36826 136.952 1.4963 138.381 0.901294C139.81 0.306292 141.343 -4.29875e-06 142.891 2.17874e-05ZM142.891 18.3259C144.188 18.3349 145.459 17.9574 146.542 17.2413C147.624 16.5253 148.47 15.503 148.971 14.3047C149.471 13.1063 149.605 11.7859 149.354 10.5115C149.103 9.23703 148.479 8.06609 147.561 7.14758C146.644 6.22907 145.474 5.60449 144.201 5.35327C142.928 5.10206 141.609 5.23557 140.412 5.73681C139.214 6.23806 138.193 7.08439 137.478 8.16818C136.763 9.25197 136.385 10.5242 136.394 11.8232C136.406 13.5441 137.095 15.1912 138.31 16.4081C139.526 17.6251 141.171 18.314 142.891 18.3259Z" fill="#FF9E18"/>
<path d="M157.109 1.18236C157.06 1.08889 157.037 0.983997 157.042 0.878582C157.048 0.773167 157.081 0.671071 157.139 0.582898C157.197 0.494725 157.277 0.42369 157.372 0.377171C157.467 0.330651 157.572 0.310343 157.677 0.318357H162.015C162.13 0.326117 162.241 0.363777 162.336 0.427596C162.432 0.491415 162.509 0.579172 162.56 0.682146L168.08 12.6417L173.554 0.682146C173.605 0.579172 173.682 0.491415 173.778 0.427596C173.874 0.363777 173.984 0.326117 174.099 0.318357H178.46C178.563 0.314603 178.666 0.338032 178.757 0.386304C178.848 0.434577 178.925 0.506004 178.981 0.593451C179.036 0.680898 179.067 0.781306 179.071 0.884645C179.076 0.987985 179.053 1.09064 179.005 1.18236L168.738 23.1916C168.691 23.2976 168.615 23.3881 168.519 23.4525C168.422 23.5169 168.309 23.5526 168.193 23.5554H167.875C167.756 23.5569 167.638 23.5233 167.537 23.4586C167.436 23.394 167.356 23.3012 167.308 23.1916L157.109 1.18236Z" fill="#FF9E18"/>
<path d="M183.32 0.954909C183.32 0.869357 183.338 0.784672 183.371 0.705912C183.404 0.627152 183.453 0.555933 183.515 0.496509C183.576 0.437085 183.649 0.390676 183.729 0.360053C183.809 0.32943 183.894 0.315222 183.979 0.318277H197.607C197.776 0.318277 197.938 0.385351 198.057 0.504742C198.176 0.624134 198.243 0.786064 198.243 0.954909V4.54733C198.237 4.7122 198.168 4.86835 198.049 4.98287C197.93 5.09739 197.772 5.16133 197.607 5.16122H188.522V9.0947H195.972C196.137 9.10059 196.293 9.17026 196.407 9.28902C196.521 9.40777 196.585 9.56635 196.585 9.73133V13.392C196.58 13.553 196.513 13.7059 196.399 13.8198C196.285 13.9337 196.133 14.0002 195.972 14.0059H188.522V18.4168H197.607C197.776 18.4168 197.938 18.4839 198.057 18.6033C198.176 18.7227 198.243 18.8846 198.243 19.0534V22.7368C198.237 22.9017 198.168 23.0578 198.049 23.1723C197.93 23.2869 197.772 23.3508 197.607 23.3507H183.979C183.814 23.3508 183.656 23.2869 183.537 23.1723C183.419 23.0578 183.349 22.9017 183.343 22.7368L183.32 0.954909Z" fill="#FF9E18"/>
<path d="M204.103 0.954991C204.103 0.786146 204.17 0.624216 204.29 0.504824C204.409 0.385433 204.571 0.318359 204.739 0.318359H208.623C208.788 0.324251 208.944 0.393917 209.058 0.512676C209.173 0.631435 209.237 0.790012 209.237 0.954991V18.4169H217.027C217.11 18.4168 217.191 18.4334 217.267 18.4657C217.343 18.498 217.412 18.5452 217.469 18.6047C217.526 18.6641 217.571 18.7345 217.601 18.8116C217.63 18.8887 217.644 18.971 217.641 19.0535V22.7369C217.641 22.8997 217.576 23.0558 217.461 23.171C217.346 23.2861 217.19 23.3508 217.027 23.3508H204.739C204.574 23.3509 204.416 23.2869 204.297 23.1724C204.179 23.0579 204.109 22.9018 204.103 22.7369V0.954991Z" fill="#FF9E18"/>
<path d="M222.456 0.954991C222.453 0.872481 222.466 0.790201 222.496 0.713075C222.525 0.63595 222.57 0.565564 222.627 0.506128C222.685 0.446692 222.753 0.399429 222.829 0.367166C222.905 0.334903 222.987 0.318303 223.069 0.31836H226.953C227.12 0.324027 227.278 0.39292 227.397 0.511105C227.515 0.62929 227.583 0.787948 227.589 0.954991V18.4169H235.357C235.526 18.4169 235.688 18.484 235.807 18.6033C235.926 18.7227 235.993 18.8847 235.993 19.0535V22.7369C235.987 22.9018 235.918 23.0579 235.799 23.1724C235.68 23.2869 235.522 23.3509 235.357 23.3508H223.069C222.906 23.3508 222.75 23.2861 222.635 23.171C222.52 23.0558 222.456 22.8997 222.456 22.7369V0.954991Z" fill="#FF9E18"/>
<path d="M238.923 22.3731L249.144 0.363789C249.199 0.25906 249.28 0.170452 249.38 0.106672C249.48 0.0428906 249.594 0.00612983 249.712 0L250.03 0C250.148 0.00612983 250.262 0.0428906 250.362 0.106672C250.462 0.170452 250.543 0.25906 250.598 0.363789L260.819 22.3731C260.867 22.4648 260.89 22.5674 260.885 22.6708C260.881 22.7741 260.85 22.8745 260.795 22.962C260.739 23.0494 260.662 23.1208 260.571 23.1691C260.479 23.2174 260.377 23.2408 260.274 23.2371H256.662C256.072 23.2371 255.822 23.0324 255.527 22.4185L254.391 19.8265H245.487L244.329 22.4413C244.236 22.6785 244.074 22.8819 243.863 23.0241C243.652 23.1663 243.402 23.2406 243.148 23.2371H239.536C239.433 23.2408 239.331 23.2174 239.239 23.1691C239.148 23.1208 239.071 23.0494 239.016 22.962C238.96 22.8745 238.929 22.7741 238.925 22.6708C238.921 22.5674 238.943 22.4648 238.991 22.3731M252.415 15.3701L249.848 9.98147L247.395 15.3701H252.415Z" fill="#FF9E18"/>
<path d="M105.936 31.3768C105.936 31.214 106 31.0579 106.115 30.9427C106.23 30.8276 106.386 30.7629 106.549 30.7629H120.177C120.34 30.7629 120.496 30.8276 120.611 30.9427C120.726 31.0579 120.79 31.214 120.79 31.3768V34.9465C120.793 35.029 120.78 35.1113 120.75 35.1884C120.721 35.2656 120.676 35.3359 120.619 35.3954C120.562 35.4548 120.493 35.5021 120.417 35.5343C120.341 35.5666 120.26 35.5832 120.177 35.5831H111.092V39.6303H118.542C118.706 39.6302 118.865 39.6941 118.984 39.8087C119.102 39.9232 119.172 40.0793 119.178 40.2442V43.8139C119.178 43.9827 119.111 44.1447 118.991 44.2641C118.872 44.3834 118.71 44.4505 118.542 44.4505H111.024V48.8615H120.109C120.272 48.8615 120.428 48.9261 120.543 49.0413C120.658 49.1564 120.722 49.3125 120.722 49.4754V53.045C120.722 53.2079 120.658 53.364 120.543 53.4791C120.428 53.5943 120.272 53.6589 120.109 53.6589H106.481C106.318 53.6589 106.162 53.5943 106.047 53.4791C105.932 53.364 105.868 53.2079 105.868 53.045L105.936 31.3768Z" fill="#FF9E18"/>
<path d="M126.719 31.3768C126.719 31.214 126.783 31.0579 126.898 30.9427C127.013 30.8276 127.169 30.7629 127.332 30.7629H131.216C131.381 30.7628 131.539 30.8268 131.658 30.9413C131.776 31.0558 131.846 31.212 131.852 31.3768V48.8615H139.62C139.785 48.8614 139.943 48.9253 140.062 49.0398C140.18 49.1543 140.25 49.3105 140.256 49.4754V53.045C140.25 53.2099 140.18 53.3661 140.062 53.4806C139.943 53.5951 139.785 53.659 139.62 53.6589H127.332C127.169 53.6589 127.013 53.5943 126.898 53.4791C126.783 53.364 126.719 53.2079 126.719 53.045V31.3768Z" fill="#FF9E18"/>
<path d="M145.048 31.3768C145.054 31.2158 145.12 31.0629 145.234 30.949C145.348 30.8351 145.501 30.7686 145.662 30.7629H159.29C159.454 30.7628 159.613 30.8268 159.732 30.9413C159.85 31.0558 159.92 31.212 159.926 31.3768V34.9465C159.926 35.1154 159.859 35.2773 159.739 35.3967C159.62 35.5161 159.458 35.5831 159.29 35.5831H150.204V39.6303H157.654C157.815 39.636 157.968 39.7025 158.082 39.8164C158.195 39.9303 158.262 40.0832 158.268 40.2442V43.8139C158.268 43.9789 158.204 44.1374 158.089 44.2562C157.975 44.375 157.819 44.4446 157.654 44.4505H150.159V48.8615H159.244C159.409 48.8614 159.567 48.9253 159.686 49.0398C159.805 49.1543 159.874 49.3105 159.88 49.4754V53.045C159.874 53.2099 159.805 53.3661 159.686 53.4806C159.567 53.5951 159.409 53.659 159.244 53.6589H145.616C145.455 53.6533 145.303 53.5868 145.189 53.4729C145.075 53.3589 145.009 53.2061 145.003 53.045L145.048 31.3768Z" fill="#FF9E18"/>
<path d="M175.961 30.4446C177.432 30.3883 178.898 30.6268 180.275 31.1461C181.652 31.6654 182.912 32.4551 183.979 33.4686C184.046 33.5262 184.1 33.5977 184.137 33.6782C184.174 33.7586 184.193 33.8461 184.193 33.9347C184.193 34.0233 184.174 34.1108 184.137 34.1912C184.1 34.2717 184.046 34.3432 183.979 34.4008L181.435 37.0383C181.382 37.0933 181.319 37.1371 181.249 37.1669C181.178 37.1968 181.103 37.2122 181.026 37.2122C180.95 37.2122 180.875 37.1968 180.804 37.1669C180.734 37.1371 180.671 37.0933 180.618 37.0383C179.392 35.9785 177.83 35.3901 176.211 35.3785C174.505 35.4781 172.9 36.2269 171.727 37.4717C170.554 38.7166 169.901 40.3632 169.901 42.0745C169.901 43.7858 170.554 45.4324 171.727 46.6772C172.9 47.922 174.505 48.6709 176.211 48.7705C177.814 48.7726 179.366 48.209 180.595 47.1789C180.713 47.0809 180.862 47.0273 181.015 47.0273C181.169 47.0273 181.317 47.0809 181.435 47.1789L183.979 50.021C184.089 50.1424 184.15 50.3004 184.15 50.4644C184.15 50.6283 184.089 50.7864 183.979 50.9078C181.854 52.979 178.996 54.1234 176.03 54.0909C172.909 54.0909 169.916 52.8501 167.71 50.6413C165.504 48.4326 164.264 45.4369 164.264 42.3132C164.264 39.1896 165.504 36.1939 167.71 33.9852C169.916 31.7764 172.909 30.5355 176.03 30.5355" fill="#FF9E18"/>
<path d="M192.406 35.5831H187.727C187.562 35.5773 187.406 35.5076 187.292 35.3888C187.177 35.2701 187.114 35.1115 187.114 34.9465V31.3768C187.119 31.2158 187.186 31.0629 187.3 30.949C187.413 30.8351 187.566 30.7686 187.727 30.7629H202.15C202.315 30.7628 202.473 30.8268 202.592 30.9413C202.71 31.0558 202.78 31.212 202.786 31.3768V34.9465C202.786 35.1154 202.719 35.2773 202.6 35.3967C202.48 35.5161 202.319 35.5831 202.15 35.5831H197.607V53.045C197.601 53.2099 197.532 53.3661 197.413 53.4806C197.295 53.5951 197.136 53.659 196.971 53.6589H193.065C192.9 53.659 192.741 53.5951 192.623 53.4806C192.504 53.3661 192.434 53.2099 192.429 53.045L192.406 35.5831Z" fill="#FF9E18"/>
<path d="M207.783 31.3767C207.783 31.2139 207.848 31.0578 207.963 30.9427C208.078 30.8275 208.234 30.7628 208.396 30.7628H218.163C219.847 30.7148 221.492 31.2787 222.793 32.3504C224.094 33.4221 224.963 34.9291 225.24 36.5927C225.517 38.2563 225.183 39.964 224.299 41.4001C223.416 42.8363 222.043 43.9036 220.434 44.405L224.977 52.7266C225.034 52.8213 225.065 52.9296 225.066 53.0403C225.067 53.151 225.038 53.2599 224.982 53.3554C224.926 53.451 224.846 53.5296 224.749 53.583C224.652 53.6364 224.542 53.6626 224.432 53.6588H220.026C219.92 53.6585 219.817 53.6311 219.726 53.5794C219.634 53.5276 219.558 53.4532 219.503 53.3633L215.165 44.7005H212.893V53.045C212.888 53.2098 212.818 53.366 212.699 53.4805C212.581 53.595 212.422 53.659 212.258 53.6588H208.396C208.234 53.6588 208.078 53.5942 207.963 53.479C207.848 53.3639 207.783 53.2078 207.783 53.045V31.3767ZM217.754 40.4715C218.427 40.46 219.07 40.1887 219.548 39.7142C220.027 39.2397 220.303 38.5987 220.321 37.925C220.315 37.2695 220.052 36.6426 219.589 36.1791C219.126 35.7156 218.5 35.4526 217.845 35.4466H212.916V40.5397L217.754 40.4715Z" fill="#FF9E18"/>
<path d="M235.857 30.7629H231.927C231.589 30.7629 231.314 31.0378 231.314 31.3768V53.045C231.314 53.3841 231.589 53.6589 231.927 53.6589H235.857C236.195 53.6589 236.47 53.3841 236.47 53.045V31.3768C236.47 31.0378 236.195 30.7629 235.857 30.7629Z" fill="#FF9E18"/>
<path d="M253.869 30.4447C255.32 30.3998 256.767 30.644 258.124 31.1631C259.481 31.6822 260.721 32.4659 261.773 33.4687C261.84 33.5263 261.894 33.5978 261.931 33.6783C261.968 33.7587 261.987 33.8462 261.987 33.9348C261.987 34.0233 261.968 34.1109 261.931 34.1913C261.894 34.2718 261.84 34.3433 261.773 34.4009L259.229 37.0384C259.176 37.0934 259.112 37.1371 259.042 37.167C258.972 37.1969 258.896 37.2123 258.82 37.2123C258.744 37.2123 258.668 37.1969 258.598 37.167C258.528 37.1371 258.464 37.0934 258.411 37.0384C257.186 35.9786 255.624 35.3902 254.005 35.3786C252.298 35.4782 250.694 36.227 249.521 37.4718C248.348 38.7166 247.694 40.3632 247.694 42.0746C247.694 43.7859 248.348 45.4325 249.521 46.6773C250.694 47.9221 252.298 48.671 254.005 48.7706C255.608 48.7726 257.16 48.2091 258.389 47.179C258.51 47.0793 258.663 47.0248 258.82 47.0248C258.977 47.0248 259.13 47.0793 259.252 47.179L261.841 50.0211C261.951 50.1425 262.012 50.3005 262.012 50.4645C262.012 50.6284 261.951 50.7865 261.841 50.9078C260.793 51.9338 259.554 52.743 258.194 53.2892C256.834 53.8354 255.379 54.1078 253.914 54.091C250.794 54.091 247.801 52.8501 245.595 50.6414C243.388 48.4327 242.148 45.437 242.148 42.3133C242.148 39.1897 243.388 36.194 245.595 33.9852C247.801 31.7765 250.794 30.5356 253.914 30.5356" fill="#FF9E18"/>
<path d="M48.9476 31.7861H39.5669L57.397 0H51.0372H37.3183V28.512L17.6257 0H13.7189H0V53.6362H13.7189V19.872L37.023 53.6362H37.3183H42.6332L48.9476 31.7861Z" fill="#FF9E18"/>
<path d="M93.3297 13.6421V0H58.4418L52.1047 21.8501H62.5302L43.7916 53.6817H93.3297V39.8804H64.7788V31.1495L67.3 33.696H75.4996V32.2636H82.9269V28.8985H75.4996V24.7377H82.9269V21.3726H75.4996V19.9402H67.3L64.7788 22.464V13.6421H93.3297Z" fill="#FF9E18"/>
</g>
<defs>
<clipPath id="clip0_62_163">
<rect width="262" height="54" fill="white"/>
</clipPath>
</defs>
</svg>
